# xmcd
#
# Track frame offsets:
#	150
#	17953
#	34628
#	50630
#	66114
#	79026
#	97761
#	116357
#	145933
#	164470
#	180109
#	198228
#
# Disc length: 2881 seconds
#
# Revision: 2
# Processed by: cddbd v1.5.2PL0 Copyright (c) Steve Scherf et al.
# Submitted via: audiograbber 1.83.01
#
DISCID=910b3f0c
DTITLE=CD Pool - Urban December 2010 CD2
DYEAR=2010
DGENRE=R&B
TTITLE0=T-Pain Ft Rick Ross - Rap Song (Explicit Main Mix)
TTITLE1=Jodie Connor Ft Wiley - Now Or Never (Radio Edit)
TTITLE2=Lil H - Love Is Real
TTITLE3=Miss Elii Ft Trppi - Champagne
TTITLE4=Rules Of Love - Turn Da Lights (Explicit)
TTITLE5=Ladi 6 - Dark Brown
TTITLE6=JR and PH7 Ft Sean Price and Olivier Day Soul - Persuasion (Dirty Version)
TTITLE7=Kraak and Smaak Ft Sebastian and DJ Git Hyper - Dynamite (Kraak and Smaak's B
TTITLE7=oogie Funk Version)
TTITLE8=Nathan Watson - Reach Out (SedSoul Mix)
TTITLE9=Mariah Carey - Here Comes Santa Claus
TTITLE10=Next - Too Close (Radio Edit)
TTITLE11=112 - It's Over Now (Radio Edit)
EXTD=
EXTT0=
EXTT1=
EXTT2=
EXTT3=
EXTT4=
EXTT5=
EXTT6=
EXTT7=
EXTT8=
EXTT9=
EXTT10=
EXTT11=
PLAYORDER=
